<?xml version='1.0' encoding='UTF-8'?>
<svg xmlns="http://www.w3.org/2000/svg" id="Layer_1" data-name="Layer 1" viewBox="250 360 570 340">
  <defs>
    <style>
      .cls-1 {
        letter-spacing: 0em;
      }

      .cls-2 {
        fill: #231f20;
      }

      .cls-3 {
        font-family: Gilroy-SemiBold, Gilroy-SemiBold;
        font-size: 65.97px;
        font-weight: 600;
      }

      .cls-4 {
        letter-spacing: 0em;
      }

      .cls-5 {
        letter-spacing: -.03em;
      }

      .cls-6 {
        letter-spacing: -.02em;
      }

      .cls-7 {
        letter-spacing: -.02em;
      }

      .cls-8 {
        letter-spacing: -.03em;
      }

      .cls-9 {
        letter-spacing: -.03em;
      }

      .cls-10 {
        letter-spacing: 0em;
      }

      .cls-11 {
        letter-spacing: 0em;
      }

      .cls-12 {
        letter-spacing: .01em;
      }
    </style>
  </defs>
  <path class="cls-2" d="M369.63,463.92c-.37,15.65-13.18,28.23-28.92,28.23h-25.19c-1.31,0-2.44-1.06-2.4-2.37.37-15.65,13.18-28.23,28.92-28.23h25.19c1.31,0,2.44,1.06,2.4,2.37ZM359.33,418.62c.65-.04,26.78-1.3,31.52-27.05.22-1.22-.63-2.51-1.84-2.79-6.96-1.64-14.23-2.52-21.7-2.52-14.63,0-28.47,3.33-40.8,9.31-31.46,15.2-53.14,47.39-53.14,84.63v101.49c0,1.32,1.07,2.46,2.39,2.42,16.56-.39,29.86-13.93,29.86-30.59v-77.82c0-30.43,23.74-55.3,53.71-57.1ZM457.77,454.06c-7.75-2.5-16.18-3.55-24.96-2.72-31.88,3.01-55.61,31-55.61,63.02v66.4c0,1.84,1.49,3.33,3.33,3.33h0c15.06,0,27.27-12.21,27.27-27.27v-46.94c0-15.07,10.83-27.03,26.86-28.23,0,0,20.71-.69,25.33-23.84.32-1.6-.66-3.24-2.21-3.74ZM658.24,389.73v127.84c0,.6,0,1.2-.03,1.8-.1,3.69-.47,7.32-1.2,10.84-5.89,30.69-32.86,53.87-65.28,53.87-37.82,0-68.24-31.52-66.43-69.74,1.67-35.29,31.84-63.66,67.17-63.28,12.03.13,23.29,3.45,32.97,9.19.99.59,2.22-.09,2.22-1.23v-43.75c0-15.35,11.91-27.88,27-28.87,1.93-.13,3.59,1.39,3.59,3.32ZM627.65,517.57c0-12.24-6.19-23.54-16.66-30.26-5.69-3.69-12.34-5.62-19.25-5.62-19.99,0-36.19,16.37-35.91,36.4.25,17.96,14.42,33.45,32.3,35.22,18.7,1.85,35.38-10.86,38.83-28.85l.07-.33c.43-2,.63-4.22.63-6.55ZM806.63,517.55c0,4.32-.4,8.55-1.23,12.64-5.89,30.69-32.86,53.87-65.28,53.87-37.82,0-68.24-31.52-66.43-69.74,1.66-35.29,31.84-63.66,67.16-63.28,12.96.14,25.03,3.98,35.19,10.57,18.42,11.81,30.59,32.46,30.59,55.93ZM776.03,517.55c0-12.27-6.17-23.55-16.66-30.28-5.68-3.69-12.34-5.64-19.25-5.64-19.95,0-36.16,16.35-35.91,36.36.22,17.96,14.36,33.48,32.23,35.28,18.72,1.89,35.46-10.83,38.92-28.85l.06-.33c.41-2.01.62-4.22.62-6.54ZM502.43,451.06c-15.08.99-27,13.55-27,28.89v100.79c0,1.94,1.66,3.45,3.59,3.32,15.08-.99,27-13.55,27-28.89v-100.79c0-1.94-1.66-3.45-3.59-3.32ZM487.73,440.64c10.78,2.04,20.05-7.23,18.01-18.01-1.13-5.99-6.03-10.88-12.02-12.02-10.78-2.04-20.05,7.23-18.01,18.01,1.14,5.99,6.03,10.88,12.02,12.02Z"/>
  <text class="cls-3" transform="translate(270.37 676.91)"><tspan class="cls-9" x="0" y="0">R</tspan><tspan class="cls-7" x="38.73" y="0">e</tspan><tspan class="cls-5" x="76.07" y="0">t</tspan><tspan x="99.62" y="0">ail </tspan><tspan class="cls-12" x="188.42" y="0">S</tspan><tspan class="cls-4" x="227.6" y="0">al</tspan><tspan class="cls-6" x="284.53" y="0">e</tspan><tspan x="321.61" y="0">s </tspan><tspan class="cls-10" x="368.52" y="0">A</tspan><tspan class="cls-8" x="411.33" y="0">s</tspan><tspan class="cls-10" x="439.77" y="0">s</tspan><tspan class="cls-11" x="469.78" y="0">i</tspan><tspan class="cls-6" x="484.96" y="0">s</tspan><tspan class="cls-1" x="514.05" y="0">t</tspan></text>
</svg>